<svg width="25" height="24" viewBox="0 0 25 24" fill="none" xmlns="http://www.w3.org/2000/svg">
<path d="M12.9042 18.3507C13.853 18.3507 14.7196 18.2499 15.51 18.0757L13.7477 16.3562C13.4739 16.3767 13.1961 16.3934 12.9042 16.3934C7.53725 16.3934 5.45806 12.6294 4.95456 11.5C5.33263 10.6767 5.84325 9.91782 6.46706 9.25198L5.06489 7.88379C3.5223 9.51525 2.93756 11.1584 2.92652 11.1907C2.85734 11.3917 2.85734 11.6093 2.92652 11.8102C2.94759 11.8748 5.24843 18.3507 12.9042 18.3507ZM12.9042 4.64927C11.0617 4.64927 9.54823 5.03683 8.28648 5.60935L4.58646 2L3.16824 3.38385L21.222 21L22.6402 19.6162L19.3113 16.3679C21.9331 14.4585 22.8689 11.8513 22.8829 11.8102C22.9521 11.6093 22.9521 11.3917 22.8829 11.1907C22.8609 11.1252 20.56 4.64927 12.9042 4.64927ZM17.8911 14.9821L15.6043 12.7507C15.7948 12.3691 15.9132 11.9492 15.9132 11.5C15.9132 9.89399 14.5501 8.56397 12.9042 8.56397C12.4439 8.56397 12.0136 8.67946 11.6234 8.86638L9.81001 7.09694C10.8055 6.76362 11.8518 6.59782 12.9042 6.60662C18.2712 6.60662 20.3504 10.3706 20.8539 11.5C20.551 12.1772 19.6844 13.7921 17.8911 14.9821Z" fill="#A09F99"/>
</svg>
